{"title":"Chicago Fire S01 COMPLETE 720p BluRay x264 AC3 5.1-LeRalouf","uid":14653363,"size":23539450255,"categoryP":"video","categoryS":"hd___tv_shows","magnet":"?xt=urn:btih:8d6cc90a80ce3c838f8c2b28c56f547e2190221d&amp;dn=Chicago+Fire+S01+COMPLETE+720p+BluRay+x264+AC3+5.1-LeRalouf&amp;tr=udp%3A%2F%2Ftracker.leechers-paradise.org%3A6969&amp;tr=udp%3A%2F%2Fzer0day.ch%3A1337&amp;tr=udp%3A%2F%2Fopen.demonii.com%3A1337&amp;tr=udp%3A%2F%2Ftracker.coppersurfer.tk%3A6969&amp;tr=udp%3A%2F%2Fexodus.desync.com%3A6969","seeders":4,"leechers":1,"uploader":"LeRalouf","files":72,"time":1463672809,"description":"\nChicago Fire season 1 720p BluRay x264-LeRalouf, COMPLETE\r\n\r\n\r\nGeneral\r\nFormat : Matroska\r\nFormat version : Version 4 / Version 2\r\nFile size : 1 009 MiB\r\nDuration : 42mn 35s\r\nOverall bit rate : 3 312 Kbps\r\nEncoded date : UTC 2016-04-07 17:12:05\r\nWriting application : mkvmerge v9.0.1 ('Obstacles') 64bit\r\nWriting library : libebml v1.3.3 + libmatroska v1.4.4\r\nDURATION : 00:42:00.434000000\r\nNUMBER_OF_FRAMES : 472\r\nNUMBER_OF_BYTES : 18925\r\n_STATISTICS_WRITING_APP : mkvmerge v9.0.1 ('Obstacles') 64bit\r\n_STATISTICS_WRITING_DATE_UTC : 2016-04-07 17:12:05\r\n_STATISTICS_TAGS : BPS DURATION NUMBER_OF_FRAMES NUMBER_OF_BYTES\r\n\r\nVideo\r\nID : 1\r\nFormat : AVC\r\nFormat/Info : Advanced Video Codec\r\nFormat profile :   \r\nFormat settings, CABAC : Yes\r\nFormat settings, ReFrames : 9 frames\r\nCodec ID : V_MPEG4/ISO/AVC\r\nDuration : 42mn 35s\r\nBit rate : 2 606 Kbps\r\nWidth : 1 280 pixels\r\nHeight : 720 pixels\r\nDisplay aspect ratio : 16:9\r\nFrame rate mode : Constant\r\nFrame rate : 23.976 fps\r\nColor space : YUV\r\nChroma subsampling : 4:2:0\r\nBit depth : 8 bits\r\nScan type : Progressive\r\nBits/(Pixel*Frame) : 0.118\r\nStream size : 794 MiB (79%)\r\nWriting library : x264 core 142 r2389 956c8d8\r\nEncoding settings : cabac=1 / ref=9 / deblock=1:-2:-2 / analyse=0x3:0x133 / me=umh / subme=11 / psy=1 / psy_rd=1,00:0,00 / mixed_ref=1 / me_range=24 / chroma_me=1 / trellis=2 / 8x8dct=1 / cqm=0 / deadzone=21,11 / fast_pskip=1 / chroma_qp_offset=-2 / threads=12 / lookahead_threads=1 / sliced_threads=0 / nr=0 / decimate=1 / interlaced=0 / bluray_compat=0 / constrained_intra=0 / bframes=5 / b_pyramid=2 / b_adapt=2 / b_bias=0 / direct=3 / weightb=1 / open_gop=0 / weightp=2 / keyint=250 / keyint_min=23 / scenecut=40 / intra_refresh=0 / rc_lookahead=60 / rc=crf / mbtree=1 / crf=19,0 / qcomp=0,60 / qpmin=0 / qpmax=69 / qpstep=4 / ip_ratio=1,40 / aq=1:1,00\r\nDefault : Yes\r\nForced : No\r\nColor primaries : BT.709\r\nTransfer characteristics : BT.709\r\nMatrix coefficients : BT.709\r\nDURATION : 00:42:35.303000000\r\nNUMBER_OF_FRAMES : 61266\r\nNUMBER_OF_BYTES : 852730893\r\n_STATISTICS_WRITING_APP : mkvmerge v9.0.1 ('Obstacles') 64bit\r\n_STATISTICS_WRITING_DATE_UTC : 2016-04-07 17:12:05\r\n_STATISTICS_TAGS : BPS DURATION NUMBER_OF_FRAMES NUMBER_OF_BYTES\r\n\r\nAudio\r\nID : 2\r\nFormat : AC-3\r\nFormat/Info : Audio Coding 3\r\nMode extension : CM (complete main)\r\nFormat settings, Endianness : Big\r\nCodec ID : A_AC3\r\nDuration : 42mn 35s\r\nBit rate mode : Constant\r\nBit rate : 640 Kbps\r\nChannel(s) : 6 channels\r\nChannel positions : Front: L C R, Side: L R, LFE\r\nSampling rate : 48.0 KHz\r\nBit depth : 16 bits\r\nCompression mode : Lossy\r\nDelay relative to video : -5ms\r\nStream size : 195 MiB (19%)\r\nLanguage : English\r\nDefault : Yes\r\nForced : No\r\nDURATION : 00:42:35.296000000\r\nNUMBER_OF_FRAMES : 79853\r\nNUMBER_OF_BYTES : 204423680\r\n_STATISTICS_WRITING_APP : mkvmerge v9.0.1 ('Obstacles') 64bit\r\n_STATISTICS_WRITING_DATE_UTC : 2016-04-07 17:12:05\r\n_STATISTICS_TAGS : BPS DURATION NUMBER_OF_FRAMES NUMBER_OF_BYTES\r\n\r\nText #1\r\nID : 3\r\nFormat : UTF-8\r\nCodec ID : S_TEXT/UTF8\r\nCodec ID/Info : UTF-8 Plain Text\r\nLanguage : English\r\nDefault : No\r\nForced : No\r\n\r\nText #2\r\nID : 4\r\nFormat : UTF-8\r\nCodec ID : S_TEXT/UTF8\r\nCodec ID/Info : UTF-8 Plain Text\r\nTitle : SDH\r\nLanguage : English\r\nDefault : No\r\nForced : No\r\n\r\nMenu\r\n00:00:00.000 : :00:00:00.000\r\n00:02:16.845 : :00:02:16.636\r\n00:12:40.968 : :00:12:40.760\r\n00:22:04.114 : :00:22:03.948\r\n00:30:44.008 : :00:30:43.842\r\n00:36:20.928 : :00:36:20.804\r\n00:41:58.349 : :00:41:58.141\r\n\r\n\r\n\r\nThe 1st season, complete, with both english and english SDH subtitles, .srt and muxed.\r\n\r\n\r\nSources : Chicago.Fire.S01.1080p.BluRay.x264-shortbrehd","torrent":{"xt":"urn:btih:8d6cc90a80ce3c838f8c2b28c56f547e2190221d","amp;dn":"Chicago+Fire+S01+COMPLETE+720p+BluRay+x264+AC3+5.1-LeRalouf","amp;tr":["udp%3A%2F%2Ftracker.leechers-paradise.org%3A6969","udp%3A%2F%2Fzer0day.ch%3A1337","udp%3A%2F%2Fopen.demonii.com%3A1337","udp%3A%2F%2Ftracker.coppersurfer.tk%3A6969","udp%3A%2F%2Fexodus.desync.com%3A6969"],"infoHash":"8d6cc90a80ce3c838f8c2b28c56f547e2190221d","infoHashBuffer":{"type":"Buffer","data":[141,108,201,10,128,206,60,131,143,140,43,40,197,111,84,126,33,144,34,29]},"announce":[],"urlList":[]}}